<?xml version="1.0" encoding="UTF-8"?>
<svg xmlns="http://www.w3.org/2000/svg" xmlns:xlink="http://www.w3.org/1999/xlink" width="350.710843pt" height="71.999999pt" viewBox="0 0 350.710843 71.999999">
<path fill-rule="evenodd" fill="rgb(13.725281%, 9.803772%, 8.627319%)" fill-opacity="1" d="M 164.171875 24.996094 C 164.171875 25.519531 163.3125 26.640625 162.691406 27.109375 C 162.691406 27.109375 161.28125 27.304688 160.460938 26.992188 C 159.820312 26.746094 159.8125 25.660156 159.871094 25.035156 C 159.988281 23.824219 162.476562 23.882812 164.015625 23.394531 C 164.203125 23.5625 164.171875 24.617188 164.171875 24.996094 M 161.75 32.820312 C 161.4375 33.601562 160.5 34.105469 159.910156 34.183594 C 159.664062 34.21875 158.894531 33.632812 158.894531 33.25 C 158.890625 32.875 158.695312 32.035156 159.09375 31.605469 C 159.871094 31.683594 160.222656 31.214844 160.730469 31.058594 C 161.023438 30.96875 161.714844 30.964844 161.789062 31.449219 C 161.867188 31.957031 161.75 32.820312 161.75 32.820312 M 155.21875 27.539062 C 155.105469 28.558594 154.007812 28.828125 153.148438 29.492188 C 152.714844 29.824219 152.363281 29.027344 152.363281 29.027344 C 151.933594 28.636719 152.1875 27.8125 152.167969 27.265625 C 152.128906 26.011719 153.542969 26.445312 153.890625 26.011719 C 155.023438 25.738281 155.375 26.128906 155.21875 27.539062 M 153.890625 35.632812 C 153.519531 35.832031 152.679688 35.59375 152.050781 35.4375 C 151.871094 35.105469 151.867188 34.757812 151.894531 34.382812 C 151.929688 33.914062 152.210938 33.394531 152.402344 33.25 C 152.953125 33.09375 153.75 32.984375 154.511719 32.898438 C 154.828125 32.863281 155.144531 33.148438 155.101562 33.523438 C 154.984375 34.539062 154.394531 35.359375 153.890625 35.632812 M 172.078125 18.269531 C 171.683594 17.957031 169.488281 17.996094 168.433594 17.996094 C 167.839844 17.996094 167.304688 17.292969 166.5625 17.292969 C 165.847656 17.292969 160.417969 19.246094 158.46875 19.910156 C 157.769531 20.148438 156.628906 19.910156 155.765625 20.183594 C 154.441406 20.605469 153.585938 21.144531 152.363281 21.59375 C 151.949219 21.742188 150.632812 22.089844 150.367188 22.21875 C 150.011719 22.390625 149.222656 22.375 148.847656 22.375 C 148 22.375 148.023438 21.398438 147.242188 21.398438 C 146.613281 21.398438 145.871094 22.847656 145.988281 23.980469 C 146.082031 24.875 145.519531 25.933594 145.480469 26.519531 C 145.449219 26.964844 145.207031 27.34375 145.242188 28.007812 C 145.292969 28.824219 145.871094 29.53125 145.832031 29.960938 C 145.6875 31.5625 146.207031 33.941406 146.300781 34.539062 C 146.417969 35.28125 145.324219 36.210938 145.324219 37.394531 C 145.324219 37.769531 145.511719 38.636719 145.832031 39.269531 C 145.964844 39.550781 146.804688 39.917969 146.730469 40.953125 C 146.707031 41.328125 147.007812 41.8125 147.125 42.128906 C 147.257812 42.476562 147.199219 42.792969 147.632812 42.910156 C 148.066406 43.023438 148.273438 43.0625 148.648438 43.0625 C 149.023438 43.0625 149.636719 42.804688 149.898438 42.792969 C 150.445312 42.636719 150.910156 42.578125 151.269531 42.402344 C 151.816406 42.128906 152.265625 42.070312 152.324219 42.558594 C 152.402344 43.183594 152.167969 44.246094 152.128906 44.3125 C 151.972656 44.589844 151.582031 44.941406 151.347656 45.019531 C 151.085938 45.105469 150.859375 45.058594 150.484375 45.058594 C 150.109375 45.058594 149.960938 45.214844 149.585938 45.214844 C 149.214844 45.214844 149.144531 44.941406 148.769531 44.941406 C 148.070312 44.941406 148.019531 45.597656 147.945312 46.039062 C 147.828125 46.742188 147.828125 47.015625 147.789062 47.523438 C 147.769531 47.785156 147.582031 48.398438 147.75 48.734375 C 147.90625 49.046875 148.257812 49.242188 149 49.359375 C 149.355469 49.671875 149.9375 49.632812 150.484375 49.554688 C 150.773438 49.515625 151.542969 49.910156 151.074219 50.574219 C 150.132812 50.925781 148.449219 51.625 147.433594 52.175781 C 146.652344 52.605469 144.949219 53.097656 144.578125 53.152344 C 144.035156 53.230469 143.957031 52.722656 143.605469 52.683594 C 143.230469 52.640625 142.9375 53.269531 142.820312 53.308594 C 142.234375 53.660156 142.15625 54.445312 142.117188 54.796875 C 142.082031 55.09375 142.035156 55.714844 142 56.089844 C 141.882812 57.378906 142.414062 57.964844 142.46875 58.902344 C 142.507812 59.566406 143.960938 60.066406 144.578125 60 C 146.339844 59.800781 147.34375 59.058594 147.90625 58.980469 C 148.769531 58.863281 150.523438 58.980469 151.152344 58.667969 C 151.75 58.367188 153.070312 58.003906 154.277344 58.042969 C 155.300781 58.074219 156.074219 57.675781 156.863281 57.609375 C 157.292969 57.578125 158.230469 57.335938 159.167969 57.378906 C 160.105469 57.417969 161.085938 57.652344 161.789062 57.535156 C 162.160156 57.46875 164.210938 57.375 166.601562 57.335938 C 169.296875 57.296875 168.757812 57.910156 169.53125 57.84375 C 171.371094 57.691406 172.742188 55.335938 172.742188 53.230469 C 172.742188 51.75 170.980469 51.316406 170.980469 50.378906 C 170.472656 49.828125 169.570312 50.574219 168.789062 50.417969 C 168.113281 50.28125 166.773438 50.863281 166.289062 50.925781 C 165.660156 51.003906 164.988281 50.847656 164.25 50.847656 C 163.511719 50.847656 161.929688 51.355469 161.554688 51.355469 C 161.179688 51.355469 160.578125 51.277344 160.578125 50.574219 C 160.578125 49.992188 161.046875 49.496094 161.203125 49.398438 C 161.828125 49.007812 162.808594 48.929688 163.238281 48.65625 C 164.054688 48.136719 164.566406 47.875 164.996094 47.40625 C 165.210938 47.15625 165.308594 46.765625 165.308594 46.390625 C 165.308594 46.011719 164.683594 45.253906 164.800781 43.921875 C 164.824219 43.640625 164.566406 43.101562 164.015625 43.023438 C 163.078125 42.890625 162.378906 42.480469 162.0625 42.402344 C 161.570312 42.277344 160.878906 42.765625 160.652344 43.0625 C 160.417969 43.375 159.363281 44 158.894531 43.375 C 158.597656 42.976562 158.695312 41.96875 158.894531 41.578125 C 159.214844 40.9375 160.890625 41.1875 161.203125 40.875 C 161.640625 40.4375 162.535156 40.5625 162.769531 40.367188 C 163.109375 40.082031 163.9375 40.171875 164.25 40.328125 C 164.585938 40.496094 165.300781 39.5625 165.464844 39.113281 C 166.480469 36.300781 167.851562 34.34375 169.101562 31.527344 C 169.300781 31.082031 170.542969 30.101562 170.746094 29.648438 C 171.371094 28.242188 171.800781 27.304688 172.46875 26.441406 C 172.734375 26.097656 172.894531 25.542969 172.933594 24.449219 C 172.949219 24.171875 173.886719 23.027344 173.953125 22.296875 C 174.03125 21.398438 173.089844 20.105469 172.703125 19.753906 C 172.445312 19.523438 172.292969 18.445312 172.078125 18.269531 "/>
<path fill-rule="evenodd" fill="rgb(13.725281%, 9.803772%, 8.627319%)" fill-opacity="1" d="M 140.042969 46.429688 C 139.667969 46.429688 138.792969 46.390625 138.441406 46.429688 C 138.246094 46.3125 138.097656 45.128906 138.246094 44.785156 C 138.910156 43.222656 141.726562 41.226562 142.507812 40.757812 C 142.804688 40.578125 142.796875 40.269531 142.820312 39.894531 C 142.859375 39.269531 142.601562 39.070312 141.921875 37.785156 C 141.570312 37.121094 141.765625 36.496094 141.453125 36.457031 C 140.984375 36.398438 140.542969 36.984375 140.003906 36.496094 C 139.535156 36.0625 139.851562 34.992188 139.851562 34.617188 C 139.851562 34.242188 139.460938 33.015625 140.082031 31.878906 C 140.265625 31.546875 141.757812 29.914062 142.3125 29.414062 C 143.097656 28.714844 143.660156 28.242188 143.644531 27.65625 C 143.605469 26.246094 144.347656 25.660156 144.386719 25.191406 C 144.441406 24.570312 144.933594 23.433594 144.777344 23.042969 C 144.484375 22.320312 144.027344 20.378906 143.136719 20.890625 C 142.585938 21.203125 142 21.164062 140.589844 21.085938 C 137.808594 20.929688 134.53125 24.171875 131.636719 25.347656 C 131.089844 25.566406 129.996094 25.46875 129.566406 25.582031 C 128.964844 25.75 128.285156 25.902344 128 26.519531 C 127.796875 26.953125 127.703125 27.464844 127.253906 27.65625 C 126.707031 27.890625 126.277344 28.074219 126.277344 28.28125 C 126.277344 28.652344 126.265625 30.191406 126.785156 30.390625 C 127.230469 30.5625 127.480469 30.375 127.726562 31.019531 C 127.824219 31.5 128.367188 32.234375 128.859375 32.269531 C 129.40625 32.308594 130.113281 32.742188 130.621094 32.9375 C 131.21875 33.167969 132.378906 33.328125 132.144531 34.34375 C 131.960938 35.140625 132.074219 36.777344 131.714844 37.316406 C 131.242188 38.019531 130.625 38.84375 129.761719 38.917969 C 129.386719 38.949219 128.722656 38.789062 128.351562 38.839844 C 127.214844 38.996094 126.277344 39.808594 126.277344 40.992188 C 126.277344 41.742188 127.570312 43.238281 127.570312 43.261719 C 127.773438 43.691406 127.902344 44.011719 128.234375 44.316406 C 128.664062 44.707031 128.78125 45.472656 128.78125 45.527344 C 128.78125 45.980469 128.46875 46.429688 128.429688 47.054688 C 128.410156 47.332031 128.246094 47.964844 128.117188 48.222656 C 127.796875 48.863281 127.316406 49.210938 126.941406 49.4375 C 126.585938 49.644531 125.644531 50.539062 125.296875 50.652344 C 123.996094 51.078125 122.464844 52.71875 122.40625 53.425781 C 122.328125 54.328125 122.558594 55.347656 122.914062 56.363281 C 123.121094 56.960938 123.597656 57.4375 124.050781 57.960938 C 124.5 58.488281 124.207031 59.371094 124.832031 59.566406 C 125.636719 59.820312 126.394531 59.878906 126.667969 60.078125 C 127.074219 60.367188 127.960938 60.039062 127.960938 60.039062 C 128.703125 59.726562 129.914062 57.882812 131.203125 57.140625 C 132.75 56.253906 136.03125 54.984375 137.855469 53.820312 C 139.785156 52.582031 141.648438 51.238281 141.921875 48.929688 C 141.964844 48.554688 141.6875 47.667969 141.492188 47.367188 C 141.292969 47.066406 140.417969 46.429688 140.042969 46.429688 "/>
<path fill-rule="evenodd" fill="rgb(13.725281%, 9.803772%, 8.627319%)" fill-opacity="1" d="M 90.675781 37.363281 C 90.550781 37.582031 89.671875 38.402344 89.074219 38.773438 C 88.1875 39.328125 87.839844 39.847656 87.144531 40.261719 C 86.707031 40.523438 85.519531 40.894531 85.101562 40.894531 C 84.324219 40.894531 83.972656 40.226562 83.945312 39.742188 C 83.910156 38.996094 84.378906 38.605469 84.765625 38.363281 C 85.503906 37.90625 86.445312 37.632812 87.441406 37.214844 C 87.605469 37.109375 88.21875 36.824219 88.480469 36.546875 C 88.816406 36.25 89.332031 36.421875 89.855469 36.101562 C 89.855469 36.101562 90.710938 35.800781 91.195312 35.914062 C 91.457031 35.976562 91.007812 36.769531 90.675781 37.363281 M 99.332031 37.253906 C 99.667969 36.695312 100.519531 36.101562 101.484375 35.058594 C 101.675781 34.539062 101.601562 33.761719 101.414062 33.425781 C 101.242188 33.113281 101.109375 31.871094 100.707031 31.308594 C 100.335938 30.785156 98.847656 30.117188 98.140625 29.632812 C 97.785156 29.386719 96.691406 29.671875 96.398438 29.558594 C 95.789062 29.332031 95.191406 28.96875 94.835938 28.96875 C 94.175781 28.96875 94.089844 29.113281 93.792969 29.296875 C 93.496094 29.410156 93.234375 29.597656 92.902344 29.78125 C 92.589844 29.957031 92.238281 30.183594 91.863281 30.453125 C 91.222656 30.898438 90.855469 30.957031 90.117188 31.15625 C 89.296875 31.382812 89.171875 31.53125 88.816406 31.53125 C 88.457031 31.53125 87.65625 31.890625 87.144531 32.125 C 86.347656 32.492188 85.386719 32.503906 84.878906 32.757812 C 83.6875 33.351562 82.390625 33.6875 81.792969 33.648438 C 81.667969 33.386719 81.152344 32.839844 81.085938 32.71875 C 80.414062 32.242188 80.230469 32.011719 79.601562 31.941406 C 79.152344 32.125 78.449219 32.386719 77.929688 32.683594 C 77.445312 33.464844 76.21875 33.90625 76.183594 35.953125 C 76.175781 36.308594 76.261719 37.136719 76.332031 38.851562 C 76.386719 39.992188 76.671875 40.730469 76.816406 41.710938 C 76.9375 42.585938 77.296875 43.582031 77.296875 43.9375 C 77.296875 44.296875 77.4375 45.054688 77.484375 45.464844 C 77.617188 45.539062 77.738281 46.117188 77.820312 46.246094 C 78 46.804688 77.921875 47.195312 78.222656 47.691406 C 78.371094 47.929688 78.808594 48.292969 78.929688 48.324219 C 79.671875 48.507812 80.542969 48.511719 80.902344 48.511719 C 81.257812 48.511719 81.773438 48.285156 82.128906 48.285156 C 82.648438 48.285156 83.089844 48.882812 83.6875 48.734375 C 83.945312 48.808594 84.207031 49.414062 84.207031 49.699219 C 83.945312 50.851562 83.871094 52.464844 83.875 52.597656 C 83.730469 53.304688 83.875 54.394531 83.875 54.753906 C 83.875 55.109375 83.859375 55.957031 83.835938 56.316406 C 83.722656 58.097656 83.132812 58.578125 81.90625 58.578125 C 81.546875 58.578125 80.714844 57.722656 79.488281 57.761719 C 79.308594 57.765625 77.820312 57.835938 77.855469 58.429688 C 77.875 58.804688 79.824219 59.992188 80.417969 61.035156 C 80.832031 61.757812 80.898438 62.332031 81.308594 62.742188 C 81.773438 63.207031 82.574219 63.363281 82.984375 63.558594 C 83.410156 63.773438 83.574219 64.089844 83.984375 64.339844 C 84.269531 64.5 85.089844 64.683594 85.25 64.898438 C 85.472656 65.195312 85.710938 65.457031 86.066406 65.457031 C 86.425781 65.457031 87.214844 64.84375 87.847656 64.527344 C 88.738281 64.082031 89.253906 62.835938 89.78125 62.59375 C 90.265625 62.371094 91.566406 61.183594 91.605469 59.882812 C 91.648438 58.355469 92.011719 51.335938 91.605469 50.292969 C 91.238281 49.363281 91.269531 48.496094 91.269531 48.136719 C 91.269531 47.398438 92.050781 46.839844 92.308594 46.953125 C 92.679688 47.109375 93.25 47.023438 93.421875 46.804688 C 93.941406 46.132812 94.570312 45.5 94.910156 44.90625 C 96.0625 42.898438 96.949219 40.816406 98.289062 38.996094 C 98.8125 38.292969 99.332031 37.253906 99.332031 37.253906 "/>
<path fill-rule="evenodd" fill="rgb(13.725281%, 9.803772%, 8.627319%)" fill-opacity="1" d="M 106.375 50.523438 C 105.824219 49.765625 104.148438 47.761719 103.394531 47.902344 C 103.058594 47.96875 102.5 48.101562 102.152344 48.101562 C 101.8125 48.101562 101.136719 47.59375 100.707031 47.652344 C 100.148438 47.730469 99.519531 47.582031 99.234375 47.511719 C 98.886719 47.417969 98.007812 46.730469 97.769531 46.765625 C 97.027344 46.875 96.800781 46.355469 96.324219 46.429688 C 95.726562 46.875 96.128906 47.949219 95.835938 48.34375 C 95.679688 48.550781 95.542969 49.253906 95.726562 49.660156 C 95.871094 49.976562 96.246094 50.480469 96.285156 51.78125 C 96.304688 52.347656 97.210938 52.78125 97.25 53.675781 C 97.269531 54.039062 98.175781 55.238281 98.4375 55.867188 C 98.644531 56.367188 98.425781 57.109375 98.511719 57.503906 C 98.6875 58.277344 99.183594 58.726562 99.667969 58.726562 C 100.011719 58.726562 100.472656 58.199219 101.152344 58.023438 C 101.558594 57.914062 102.167969 58.070312 102.5625 57.984375 C 103.269531 57.8125 103.789062 57.675781 104.234375 57.320312 C 104.597656 57.003906 105.03125 56.429688 105.203125 56.203125 C 105.566406 55.757812 105.683594 54.898438 106.019531 54.53125 C 106.453125 54.0625 106.808594 53.945312 107.058594 53.152344 C 107.164062 52.824219 107.28125 51.910156 107.160156 51.671875 C 106.871094 51.085938 106.613281 50.847656 106.375 50.523438 "/>
<path fill-rule="evenodd" fill="rgb(13.725281%, 9.803772%, 8.627319%)" fill-opacity="1" d="M 78.484375 55.71875 C 78.667969 55.5 78.710938 54.664062 78.707031 54.308594 C 78.707031 54.308594 79.042969 53.601562 78.894531 53.046875 C 78.816406 52.757812 78.46875 52.675781 78.117188 52.675781 C 78.117188 52.675781 76.054688 52.632812 75.886719 52.710938 C 75.476562 52.894531 74.507812 53.191406 73.949219 53.191406 C 73.503906 53.191406 73.433594 50.925781 72.132812 50.925781 C 71.777344 50.925781 71.164062 51.441406 70.683594 51.707031 C 69.539062 52.347656 69.066406 53.855469 68.714844 55.089844 C 68.589844 55.535156 67.933594 56.21875 67.933594 56.574219 C 67.933594 56.933594 68.300781 57.480469 68.300781 57.835938 C 68.300781 58.191406 68.046875 59.078125 68.046875 59.433594 C 68.046875 60.96875 69.285156 61.554688 70.609375 61.554688 C 71.25 61.554688 72.425781 60.769531 72.765625 60.664062 C 73.15625 60.539062 73.800781 60.886719 74.398438 60.511719 C 75.117188 60.0625 75.4375 59.992188 75.808594 59.546875 C 76.308594 58.957031 76.183594 58.355469 76.515625 57.542969 C 76.65625 57.203125 77.371094 57.023438 77.519531 56.796875 C 77.855469 56.300781 78.226562 56.027344 78.484375 55.71875 "/>
<path fill-rule="evenodd" fill="rgb(13.725281%, 9.803772%, 8.627319%)" fill-opacity="1" d="M 109.140625 19.636719 C 108.507812 19.566406 107.839844 18.972656 107.503906 18.191406 C 107.34375 17.820312 106.53125 17.859375 106.132812 17.746094 C 105.613281 17.597656 105.148438 17.140625 104.792969 17.1875 C 103.941406 17.296875 102.9375 17.519531 101.710938 17.894531 C 100.851562 18.152344 97.269531 18.96875 96.324219 19.15625 C 95.765625 19.269531 95.726562 18.636719 96.027344 18.226562 C 97.140625 17.296875 97.621094 17.261719 97.546875 15.4375 C 97.476562 13.621094 96.621094 13.324219 96.324219 12.726562 C 96.132812 12.347656 96.0625 11.210938 95.800781 10.871094 C 95.53125 10.523438 94.371094 10.527344 94.203125 10.386719 C 93.757812 10.011719 93.75 9.675781 93.308594 9.683594 C 92.953125 9.6875 92.175781 9.75 91.605469 9.683594 C 91.175781 9.625 90.585938 9.511719 90.226562 9.535156 C 89.597656 9.570312 89.597656 9.785156 89.074219 9.976562 C 88.777344 10.089844 88.175781 10.003906 87.921875 10.089844 C 87.699219 10.167969 87.300781 10.546875 86.734375 10.570312 C 86.011719 10.601562 85.296875 10.28125 84.691406 10.90625 C 84.351562 11.261719 84.167969 11.71875 84.28125 12.058594 C 84.46875 12.617188 85.882812 14.664062 85.65625 15.402344 C 85.484375 15.976562 85.359375 16.40625 85.210938 16.742188 C 85.023438 17.261719 84.945312 17.425781 84.800781 17.820312 C 84.675781 18.140625 84.445312 18.589844 84.542969 18.933594 C 84.617188 19.195312 85.164062 19.671875 85.621094 19.75 C 86.074219 19.828125 86.511719 19.566406 86.734375 20.121094 C 86.824219 20.34375 87.015625 20.988281 86.921875 21.199219 C 86.660156 21.792969 85.796875 22.015625 85.324219 22.128906 C 84.542969 22.316406 81.867188 23.09375 81.421875 23.320312 C 80.9375 23.726562 80.15625 23.394531 79.300781 23.613281 C 77.59375 24.0625 76.019531 24.421875 74.324219 24.617188 C 73.769531 24.671875 72.601562 25.324219 72.242188 25.324219 C 71.886719 25.324219 71.628906 24.699219 71.277344 24.765625 C 70.308594 24.953125 68.328125 26.046875 67.636719 26.625 C 67.316406 26.894531 67.277344 27.421875 67.300781 27.886719 C 67.335938 28.628906 67.398438 29.328125 67.375 29.484375 C 67.265625 30.230469 67.226562 31.121094 67.859375 31.417969 C 68.378906 31.664062 69.296875 31.347656 69.679688 31.53125 C 70.457031 31.902344 70.132812 32.339844 70.683594 32.238281 C 71.277344 32.125 71.796875 31.863281 71.910156 31.53125 C 72.058594 31.4375 72.96875 31.066406 73.320312 31.046875 C 73.988281 31.007812 74.65625 31.007812 74.992188 30.601562 C 74.992188 30.601562 75.78125 30.46875 76.035156 30.5625 C 76.332031 30.675781 77 30.601562 77.335938 30.527344 C 77.917969 30.394531 78.449219 30.117188 78.820312 30.117188 C 79.414062 30.117188 79.8125 30.121094 80.195312 29.929688 C 80.640625 29.707031 81.011719 29.964844 81.832031 29.523438 C 82.3125 29.261719 83.28125 29.261719 83.574219 29.074219 C 84.132812 28.730469 84.925781 29.121094 85.359375 28.59375 C 85.695312 28.1875 89.015625 27.738281 91.789062 26.996094 C 92.902344 26.699219 94.1875 25.90625 94.539062 25.84375 C 95.355469 25.695312 96.0625 26.03125 96.433594 25.917969 C 97.15625 25.582031 97.695312 25.425781 98.402344 25.210938 C 98.882812 25.058594 99.890625 24.726562 100.371094 24.617188 L 102.527344 24.359375 C 102.882812 24.359375 104.882812 24.199219 105.242188 24.171875 C 106.246094 24.101562 106.539062 24.847656 106.839844 24.65625 C 107.691406 24.101562 109.699219 23.28125 109.8125 22.128906 C 109.882812 21.386719 109.886719 20.8125 109.886719 20.457031 C 109.886719 20.097656 109.433594 19.671875 109.140625 19.636719 "/>
<path fill-rule="evenodd" fill="rgb(13.725281%, 9.803772%, 8.627319%)" fill-opacity="1" d="M 344.398438 27.722656 C 343.960938 27.210938 343.265625 27.429688 342.9375 27.203125 C 342.339844 26.78125 342.046875 26.941406 341.640625 26.832031 C 341.300781 26.742188 340.859375 26.101562 340.496094 25.992188 C 340.125 25.878906 339.574219 26.003906 339.082031 26.054688 C 338.792969 26.339844 337.761719 27.175781 337.046875 27.1875 C 336.660156 27.195312 336.039062 27.324219 335.988281 26.851562 C 335.917969 26.171875 336.15625 25.308594 336.355469 24.578125 C 336.546875 23.867188 336.753906 23.054688 336.808594 22.8125 C 336.882812 22.507812 337.3125 21.425781 337.347656 21.273438 C 337.84375 19.785156 337.816406 18.222656 339.164062 16.902344 C 339.945312 16.136719 341.652344 15.207031 341.472656 14.980469 C 341.101562 14.523438 341.605469 13.339844 341.679688 12.789062 C 341.757812 12.183594 341.488281 11.730469 341.253906 11.546875 C 340.546875 10.992188 339.882812 10.652344 339.535156 10.480469 C 339.007812 10.214844 338.351562 10.375 337.96875 10.664062 C 337.738281 10.835938 337.628906 11.238281 337.496094 11.335938 C 337.035156 11.644531 332.671875 12.320312 332.21875 14.128906 C 331.996094 15.003906 333.292969 15.515625 333.273438 16.652344 C 333.265625 17.027344 333.125 17.515625 332.890625 18.027344 C 332.707031 18.4375 332.386719 19.207031 332.066406 19.292969 C 331.667969 19.398438 331.097656 19.273438 330.585938 20.023438 C 329.792969 21.183594 330.730469 21.429688 330.734375 21.742188 C 330.746094 22.265625 330.101562 22.535156 329.90625 22.734375 C 329.707031 22.933594 329.390625 23.410156 328.871094 23.539062 C 328.632812 23.59375 328.613281 24.828125 329.222656 25.289062 C 329.589844 25.5625 330.476562 25.5 330.808594 25.808594 C 331.1875 26.742188 329.988281 27.625 329.066406 27.640625 C 327.773438 27.664062 328.695312 25.933594 328.109375 26.089844 C 327.023438 26.382812 325.808594 25.554688 326.152344 25.066406 C 326.351562 24.789062 327.820312 22.773438 327.769531 22.734375 C 329.167969 19.851562 329.964844 19.210938 329.910156 18.394531 C 329.859375 17.652344 329.027344 17.011719 328.917969 16.925781 C 328.589844 16.65625 328.816406 15.347656 328.921875 15.085938 C 329.222656 14.367188 329.707031 13.742188 330.503906 13.023438 C 331.140625 12.445312 331.804688 11.308594 331.308594 10.660156 C 330.894531 10.125 330.234375 9.234375 329.386719 9.171875 C 329.1875 9.15625 328.621094 9.222656 328.382812 9.386719 C 328.144531 9.546875 327.699219 9.332031 327.375 9.480469 C 326.546875 9.847656 326.386719 11.296875 326.121094 11.808594 C 325.691406 12.625 324.792969 14.023438 324.425781 14.03125 C 324.023438 13.921875 323.421875 12.875 323.035156 12.882812 C 322.628906 12.886719 321.761719 13.875 321.765625 14.15625 C 321.773438 14.53125 322.449219 15.378906 322.527344 16.175781 C 322.578125 16.683594 322.1875 17.433594 321.835938 18.066406 C 321.46875 18.722656 321.183594 20.148438 321.832031 20.332031 C 322.324219 20.472656 322.148438 19.933594 322.957031 19.804688 C 323.644531 19.695312 324.359375 19.15625 324.554688 19.191406 C 324.960938 19.265625 326.195312 20.53125 325.523438 21.480469 C 325.269531 21.84375 324.628906 23.335938 323.78125 23.15625 C 323.496094 23.09375 323.347656 22.46875 323.039062 22.230469 C 322.585938 21.886719 321.46875 22.492188 321.058594 22.144531 C 320.777344 21.910156 320.53125 21.960938 320.558594 21.253906 C 320.574219 20.78125 320.292969 17.738281 320.007812 17.433594 C 319.765625 17.171875 319.621094 16.792969 319.625 16.304688 C 319.632812 15.511719 319.507812 14.390625 319.070312 14.4375 C 318.523438 14.496094 318.105469 14.84375 317.910156 15.082031 C 317.507812 15.566406 317.164062 16.386719 317.210938 16.738281 C 317.230469 16.875 317.421875 17.359375 317.472656 17.867188 C 317.53125 18.453125 317.542969 19.746094 317.492188 21.269531 C 317.472656 21.890625 317.964844 22.90625 317.898438 23.648438 C 317.863281 24.023438 317.75 26.796875 317.757812 27.171875 C 317.769531 27.980469 318.105469 28.652344 318.675781 28.875 C 319.070312 29.03125 319.3125 28.597656 319.550781 28.394531 C 319.792969 28.191406 320.230469 28.066406 320.183594 27.519531 C 320.144531 27.101562 320.28125 26.1875 320.722656 26.023438 C 321.328125 25.796875 321.609375 26.628906 321.507812 27.027344 C 321.355469 27.617188 321.449219 27.820312 321.890625 28.234375 C 322.136719 28.464844 322.851562 27.835938 323.214844 27.703125 C 323.898438 27.457031 324.414062 27.210938 324.671875 27.835938 C 324.808594 28.179688 324.710938 28.429688 324.519531 28.617188 C 324.324219 28.820312 323.847656 29.175781 323.484375 29.300781 C 323.15625 29.363281 322.53125 29.730469 322.160156 29.753906 C 321.191406 29.808594 320.214844 30.054688 319.746094 30.1875 C 319.304688 30.3125 318.617188 30.25 318.253906 30.292969 C 317.851562 30.335938 317.011719 30.859375 316.527344 30.75 C 316.28125 30.695312 315.839844 30.3125 315.664062 29.867188 C 315.496094 29.4375 316.171875 28.84375 316.277344 28.058594 C 316.328125 27.6875 316.25 26.90625 316.292969 26.53125 C 316.398438 25.589844 315.898438 24.894531 315.894531 24.464844 C 315.882812 24.023438 315.769531 22.003906 315.714844 21.378906 C 315.667969 20.792969 315.859375 20.28125 315.8125 19.8125 C 315.78125 19.535156 315.75 18.71875 315.871094 18.5625 C 316.105469 18.242188 315.929688 17.539062 315.851562 17.425781 C 315.601562 17.078125 315.871094 16.210938 315.695312 15.589844 C 315.539062 15.011719 315.613281 14.6875 315.46875 14.109375 C 315.34375 13.546875 315.339844 13.445312 314.929688 13.296875 C 314.570312 13.164062 314.578125 13.695312 314.292969 13.699219 C 313.988281 13.703125 313.332031 13.660156 313.042969 13.722656 C 312.347656 13.882812 311.730469 14.957031 312.179688 15.21875 C 312.410156 15.355469 312.613281 17.085938 312.589844 17.835938 C 312.511719 20.339844 313.015625 21.386719 312.910156 22.40625 C 312.742188 24.078125 312.578125 26.339844 312.582031 26.714844 C 312.589844 27.089844 312.738281 28.261719 312.945312 28.820312 C 313.066406 29.195312 313.488281 29.882812 313.492188 30.257812 C 313.5 30.632812 312.910156 30.886719 312.777344 30.972656 C 312.417969 31.214844 311.539062 31.621094 310.695312 31.792969 C 310.160156 31.902344 309.683594 31.695312 309.632812 30.988281 C 309.550781 29.847656 309.347656 28.042969 309.132812 27.871094 C 308.847656 27.640625 308.449219 27.921875 308.449219 27.921875 C 307.425781 29.460938 306.925781 30.917969 306.019531 31.953125 C 305.726562 32.285156 305.15625 32.546875 305.019531 32.597656 C 304.660156 32.800781 304.34375 33.566406 304.480469 34.011719 C 305.121094 36.113281 304.398438 36.382812 304.417969 37.496094 C 304.441406 38.707031 305.171875 40.476562 305.527344 40.957031 C 306.023438 41.605469 306.402344 41.667969 306.992188 41.558594 C 308.398438 41.300781 309.300781 39.835938 310.773438 38.671875 C 311.023438 38.476562 311.511719 37.832031 311.644531 37.644531 C 312.46875 36.457031 312.8125 35.730469 313.5 35.222656 C 314.097656 34.785156 315.5 34.296875 316.464844 34.039062 C 317.195312 33.835938 318.394531 33.652344 318.957031 33.523438 C 320.015625 33.289062 321.414062 33.210938 322.21875 33.117188 C 322.738281 33.058594 323.917969 32.835938 324.230469 32.691406 C 324.671875 32.488281 325.710938 32.183594 326.238281 32.226562 C 327.816406 32.355469 329.425781 32.210938 330.226562 31.804688 C 330.582031 31.625 332.222656 31.65625 332.761719 31.449219 C 333.40625 31.199219 335.148438 31.117188 335.175781 31.167969 C 335.425781 31.597656 334.871094 32.953125 334.164062 33.105469 C 333.761719 33.191406 332.726562 33.988281 332.324219 33.996094 C 331.601562 34.007812 331.226562 33.742188 330.660156 33.597656 C 330.363281 33.519531 329.652344 33.730469 329.046875 33.660156 C 328.6875 33.621094 327.351562 33.5 327.070312 33.65625 C 326.734375 33.855469 326.140625 34.210938 326.234375 34.257812 C 325.050781 34.613281 325.148438 34.550781 324.832031 34.75 C 324.386719 35.027344 323.410156 34.957031 323.140625 35.054688 C 322.3125 35.371094 321.621094 35.425781 320.890625 35.605469 C 320.367188 35.730469 319.359375 35.667969 318.917969 35.796875 C 318.757812 35.839844 318.449219 36.125 318.117188 36.320312 C 317.636719 36.601562 316.417969 36.074219 315.984375 36.472656 C 314.671875 37.671875 314.785156 39.699219 314.472656 40.058594 C 314.195312 40.375 314.050781 41.277344 314.0625 42.023438 C 314.074219 42.683594 313.996094 43.054688 314.609375 43.34375 C 315.054688 43.554688 315.695312 43.480469 316.0625 43.355469 C 316.542969 43.1875 317.304688 42.980469 317.78125 42.464844 C 318.222656 41.988281 318.910156 41.46875 319.296875 41.460938 C 319.683594 41.453125 320.765625 41.085938 320.671875 41.59375 C 320.558594 42.183594 320.191406 42.96875 320.015625 43.324219 C 319.824219 43.71875 319.910156 44.746094 319.761719 45.089844 C 319.644531 45.367188 319.65625 45.679688 319.253906 45.921875 C 318.855469 46.164062 318.738281 46.332031 317.816406 46.652344 C 317.082031 46.90625 316.152344 46.890625 315.441406 47.277344 C 314.808594 47.628906 313.917969 48.476562 313.53125 48.484375 C 313.140625 48.488281 311.929688 47.964844 311.542969 47.96875 C 310.6875 47.984375 309.097656 48.953125 308.828125 49.660156 C 308.550781 50.394531 308.375 51.523438 308.382812 51.902344 C 308.390625 52.277344 308.125 53.269531 308.613281 53.535156 C 308.878906 53.683594 309.398438 53.761719 309.632812 53.988281 C 310.488281 54.835938 311.121094 54.550781 311.859375 54.535156 C 312.246094 54.53125 313.65625 53.675781 314.34375 53.632812 C 315.191406 53.578125 316.6875 53.3125 317.363281 53.109375 C 318.042969 52.902344 319.996094 52.558594 320.300781 52.589844 C 321.347656 52.6875 321.425781 53.347656 321.167969 53.824219 C 320.34375 55.328125 319.671875 58.664062 318.027344 59.199219 C 317.25 59.453125 315.691406 59.632812 314.042969 59.9375 C 313.097656 60.109375 312.125 60.085938 312.402344 60.746094 C 312.613281 61.253906 315.457031 62.480469 315.476562 63.664062 C 315.488281 64.265625 315.304688 65.273438 315.671875 65.578125 C 316.441406 65.886719 317.695312 65.898438 318.863281 65.601562 C 319.621094 65.410156 319.621094 65.160156 320.988281 65.015625 C 321.75 64.9375 322.726562 64.355469 323.636719 64.070312 C 324.960938 63.65625 324.855469 61.820312 325.429688 60.558594 C 325.539062 60.414062 326.417969 59.691406 326.371094 58.9375 C 326.316406 58 326.660156 57.304688 326.882812 56.480469 C 327.078125 55.75 327.054688 55.011719 327.148438 54.347656 C 327.257812 53.601562 326.953125 52.359375 326.984375 51.851562 C 327.042969 50.882812 329.863281 50.351562 330.585938 50.222656 C 331.046875 50.136719 331.679688 49.808594 332.152344 49.683594 C 333.09375 49.4375 333.601562 49.421875 334.441406 49.253906 C 334.929688 49.152344 335.382812 48.578125 335.757812 48.136719 C 336.191406 47.621094 336.238281 46.226562 336.320312 45.859375 C 336.472656 45.1875 335.609375 45.019531 335.460938 44.972656 C 334.367188 44.636719 333.695312 44.175781 333.265625 44.070312 C 332.050781 43.777344 331.550781 42.96875 331.023438 42.9375 C 330.644531 42.917969 330.261719 43.554688 329.75 43.625 C 329.105469 43.710938 328.304688 44.273438 327.78125 44.402344 C 327.261719 44.527344 326.773438 44.457031 326.6875 44.1875 C 326.460938 43.457031 326.804688 42.386719 327.054688 42.03125 C 327.527344 41.355469 328.585938 40.367188 329 40.078125 C 329.515625 39.714844 330.113281 39.195312 330.425781 38.566406 C 330.8125 37.78125 332.683594 36.101562 334.328125 35.800781 C 335.15625 35.648438 336.261719 35.53125 336.589844 35.761719 C 337.03125 36.070312 338.230469 36.101562 338.367188 35.925781 C 338.6875 35.527344 339.332031 35.324219 339.769531 35.316406 C 341.988281 35.277344 343.890625 34.554688 344.347656 34.097656 C 344.824219 33.621094 345.117188 31.894531 345.183594 31.074219 C 345.25 30.269531 345.058594 28.496094 344.398438 27.722656 "/>
<path fill-rule="evenodd" fill="rgb(13.725281%, 9.803772%, 8.627319%)" fill-opacity="1" d="M 26.972656 24.25 C 26.871094 23.523438 26.214844 22.851562 25.632812 22.160156 C 25.371094 21.851562 24.601562 21.703125 24.382812 21.566406 C 24.003906 21.328125 23.171875 21.199219 22.972656 21.195312 C 22.605469 21.191406 21.113281 21.292969 20.792969 21.234375 C 20.105469 21.109375 19.261719 21.132812 18.652344 21.007812 C 18.195312 20.910156 17.671875 20.300781 17.328125 20.257812 C 16.964844 20.207031 16.691406 20.375 16.476562 20.625 C 15.933594 21.265625 15.667969 21.261719 15.125 21.671875 C 14.964844 21.9375 14.929688 22.230469 15.109375 22.554688 C 15.40625 23.09375 16.402344 23.507812 16.316406 25.632812 C 16.25 27.390625 15.695312 28.339844 15.582031 30.402344 C 15.527344 31.472656 14.867188 31.917969 14.398438 32.601562 C 13.816406 33.089844 12.660156 33.445312 11.96875 33.703125 C 11.625 33.832031 10.65625 33.816406 10.207031 33.824219 C 9.363281 33.851562 8.625 34.449219 7.78125 34.585938 C 7.117188 34.695312 5.964844 35.132812 6.03125 36.316406 C 6.148438 38.386719 5.882812 38.34375 5.867188 39.296875 C 5.851562 40.0625 6.121094 40.277344 6.222656 40.757812 C 6.375 41.476562 6.234375 42.09375 6.605469 42.871094 C 6.828125 43.328125 7.070312 43.398438 7.433594 43.570312 C 7.777344 43.726562 8.382812 43.496094 8.738281 43.398438 C 9.277344 43.261719 10.066406 42.777344 10.433594 42.78125 C 10.800781 42.789062 11.691406 42.765625 12.269531 42.546875 C 12.269531 42.546875 13.019531 42.714844 13.21875 43.136719 C 13.398438 43.519531 13.335938 47.230469 13.335938 47.230469 C 13.285156 48.109375 12.144531 48.699219 11.550781 48.996094 C 10.507812 49.511719 9.070312 50.675781 7.683594 51.148438 C 7.199219 51.316406 6.226562 51.429688 5.453125 51.992188 C 4.710938 52.523438 4.136719 52.84375 3.363281 53.214844 C 2.976562 53.398438 2.429688 53.222656 2.019531 53.34375 C 1.691406 53.429688 1.171875 53.941406 1.164062 54.550781 C 1.160156 54.792969 1.527344 55.554688 1.671875 56.132812 C 1.796875 56.636719 1.65625 57.613281 2.058594 57.933594 C 2.851562 58.558594 2.988281 58.507812 3.492188 59.03125 C 4.160156 59.742188 5.019531 61.355469 5.714844 61.058594 C 6.832031 60.582031 8.976562 58.664062 9.199219 58.554688 C 9.886719 58.183594 10.867188 58.070312 11.4375 57.601562 C 12.480469 56.742188 13.867188 55.996094 15.109375 55.449219 C 16.070312 55.023438 17.207031 54.640625 17.960938 54.15625 C 18.65625 53.710938 19.414062 52.015625 20.644531 51.605469 C 21.773438 51.226562 22.9375 50.355469 23.738281 49.707031 C 24.222656 49.328125 24.628906 48.835938 24.761719 48.117188 C 25.015625 46.707031 25.492188 45.761719 25.578125 45.1875 C 25.632812 44.824219 25.359375 44.375 25.292969 43.84375 C 25.246094 43.4375 25.207031 43.238281 25.15625 42.964844 C 25.105469 42.683594 24.628906 42.496094 24.648438 41.460938 C 24.660156 40.769531 24.753906 39.617188 24.800781 39.246094 C 24.933594 38.179688 25.140625 37.386719 25.191406 36.652344 C 25.347656 34.28125 25.398438 33.480469 25.417969 32.371094 C 25.425781 32.003906 25.605469 30.535156 25.726562 30.003906 C 26.167969 28.980469 26.703125 28.085938 26.796875 27.730469 C 26.917969 27.273438 26.898438 25.992188 26.871094 25.625 C 26.839844 25.125 27.0625 24.894531 26.972656 24.25 "/>
<path fill-rule="evenodd" fill="rgb(13.725281%, 9.803772%, 8.627319%)" fill-opacity="1" d="M 51.613281 50.078125 C 51.058594 49.882812 49.949219 49.808594 49.515625 49.851562 C 49.1875 49.882812 48.527344 49.527344 48.1875 49.328125 C 48.054688 49.253906 47.230469 49.273438 46.8125 49.039062 C 46.667969 48.953125 45.335938 48.757812 44.902344 48.773438 C 44.144531 48.703125 42.886719 48.355469 42.210938 47.582031 C 41.265625 46.496094 41.542969 45.460938 41.234375 44.390625 C 41.128906 44.039062 40.984375 43.199219 41.113281 42.515625 C 41.289062 41.5625 41.746094 39.117188 42.328125 38.636719 C 43.367188 38.421875 44.945312 37.65625 45.835938 36.9375 C 46.601562 36.324219 47.335938 36.210938 48.042969 35.710938 C 48.488281 35.386719 48.863281 34.808594 49.628906 34.589844 C 50.421875 34.367188 50.800781 34.269531 51.472656 34.125 C 51.972656 34.023438 52.402344 33.566406 52.371094 33.105469 C 52.347656 32.742188 52.308594 31.566406 52.0625 31.152344 C 51.578125 30.339844 51.289062 28.574219 50.578125 28.414062 C 49.324219 28.125 48.515625 27.21875 47.957031 27.488281 C 47.492188 27.707031 47.140625 28.238281 46.332031 28.414062 C 45.898438 29.132812 44.871094 28.847656 44.695312 27.851562 C 44.625 27.433594 45.074219 25.980469 45.074219 25.980469 C 45.589844 24.765625 46.976562 24.332031 47.050781 22.304688 C 47.066406 21.9375 46.882812 20.746094 46.371094 19.65625 C 46.175781 19.230469 45.851562 18.734375 45.507812 18.683594 C 45.199219 18.640625 44.667969 18.628906 44.40625 18.4375 C 44.027344 18.160156 43.917969 17.699219 43.078125 17.648438 C 42.464844 17.609375 41.601562 18.003906 41.234375 18 C 40.867188 17.992188 40.367188 17.691406 39.789062 17.703125 C 39.421875 17.714844 38.695312 18.074219 38.175781 18.058594 C 37.574219 18.042969 36.6875 17.648438 36.269531 17.679688 C 35.542969 17.734375 35.097656 17.816406 34.835938 18.691406 C 34.632812 19.371094 34.753906 21.171875 34.753906 21.171875 C 34.746094 21.539062 34.246094 23.992188 33.964844 24.867188 C 33.683594 25.734375 33.476562 26.316406 33.425781 27.15625 C 33.402344 27.523438 33.34375 29.433594 33.207031 30.898438 C 33.183594 31.195312 32.820312 32.351562 32.707031 33.300781 C 32.570312 34.40625 32.269531 34.25 32.167969 35.664062 C 32.148438 35.945312 31.566406 36.8125 31.53125 37.105469 C 31.171875 39.96875 30.75 40.191406 30.761719 41.683594 C 30.761719 42.050781 30.761719 43.863281 31.054688 44.519531 C 31.175781 44.789062 31.296875 45.992188 31.292969 46.359375 L 31.410156 48.269531 C 31.40625 48.640625 31.976562 50.847656 32.046875 51.34375 C 32.070312 51.515625 32.046875 53.445312 32.230469 53.910156 C 32.445312 54.453125 33.257812 55.855469 33.609375 56.113281 C 33.960938 56.375 34.523438 56.765625 35.085938 56.945312 C 35.734375 57.148438 37.167969 56.949219 38.027344 57.109375 C 38.78125 57.253906 39.679688 57.671875 40.046875 57.679688 C 40.046875 57.679688 41.765625 57.75 42.417969 57.71875 C 42.875 57.699219 43.984375 57.628906 44.820312 57.953125 C 45.167969 58.089844 45.839844 58.621094 46.378906 58.632812 C 46.914062 58.640625 47.757812 58.429688 48.609375 58.097656 C 49.261719 57.839844 50.429688 58.085938 50.867188 57.753906 C 51.410156 57.339844 51.5 56.582031 51.746094 55.78125 C 52.070312 54.714844 52.628906 53.738281 52.792969 52.773438 C 52.960938 51.785156 52.527344 50.402344 51.613281 50.078125 "/>
<path fill-rule="evenodd" fill="rgb(13.725281%, 9.803772%, 8.627319%)" fill-opacity="1" d="M 232 51.242188 C 231.992188 50.800781 231.96875 50.164062 231.800781 49.753906 C 231.34375 48.597656 230.25 48.359375 229.621094 48.003906 C 229.117188 47.710938 228.441406 47.238281 227.953125 47.082031 C 227.386719 46.898438 226.640625 46.652344 226.257812 46.632812 C 225.875 46.609375 225.148438 46.683594 224.699219 46.789062 C 224.132812 46.917969 223.828125 47.421875 223.066406 47.421875 C 221.113281 47.421875 218.566406 47.34375 216.796875 47.574219 C 216.300781 47.148438 216.574219 45.722656 216.621094 44.089844 C 216.632812 43.609375 216.617188 43.050781 216.851562 42.75 C 217.148438 42.363281 217.132812 41.925781 217.195312 41.488281 C 217.25 41.097656 217.269531 40.816406 217.660156 40.277344 C 217.855469 40.003906 218.21875 39.371094 218.203125 38.988281 C 218.140625 37.191406 217.261719 37.863281 217.394531 36.15625 C 217.519531 34.523438 219.066406 34.53125 220.789062 33.777344 C 221.28125 33.574219 222.257812 33 222.488281 32.632812 C 222.964844 31.859375 223.96875 31.269531 224.699219 30.753906 C 226.230469 29.675781 227.386719 29.695312 227.507812 28.148438 C 227.527344 27.929688 226.90625 27.441406 226.808594 27.035156 C 226.65625 26.40625 226.542969 25.773438 226.257812 25.371094 C 225.773438 24.691406 225.078125 24.355469 224.511719 23.6875 C 224.234375 23.355469 223.695312 23.003906 223.3125 22.984375 C 222.929688 22.964844 222.660156 23.207031 221.902344 23.1875 C 221.285156 23.171875 220.691406 23.175781 220.296875 23.386719 C 217.960938 24.613281 216.84375 25.097656 214.589844 25.796875 C 214.3125 25.882812 213.789062 26.113281 213.652344 26.144531 C 213.34375 26.226562 212.882812 26.386719 212.316406 26.515625 C 209.742188 27.109375 205.089844 27.84375 204.710938 27.792969 C 203.722656 27.660156 201.859375 26.855469 201.523438 27.027344 C 200.660156 27.460938 199.777344 27.535156 199.765625 28.527344 C 199.761719 28.910156 199.960938 30.148438 199.941406 30.53125 C 199.921875 30.914062 200.023438 32.273438 200.308594 32.628906 C 201.023438 33.503906 201.632812 34.359375 201.730469 35.214844 C 201.835938 36.175781 201.730469 37.101562 202.453125 37.367188 C 203.355469 37.691406 204.816406 37.210938 204.816406 37.210938 C 205.199219 37.230469 206.03125 36.835938 206.664062 36.910156 C 207.007812 37.042969 207.058594 37.886719 207.054688 38.601562 C 207.050781 39.480469 206.863281 40.144531 206.664062 40.738281 C 206.191406 42.148438 206.039062 45.890625 202.9375 47.125 C 201.484375 47.703125 199.511719 48.699219 198.167969 49.105469 C 197.738281 49.238281 196.921875 49.28125 196.4375 49.453125 C 195.011719 49.960938 192.453125 51.015625 192.078125 51.101562 C 191.394531 51.265625 190.351562 50.839844 189.976562 50.914062 C 189.492188 51.007812 186.851562 52.023438 186.445312 52.882812 C 186.695312 53.417969 186.734375 54.25 186.648438 55.085938 C 186.609375 55.464844 186.539062 56.394531 186.714844 56.878906 C 188.007812 58.105469 189.347656 59.894531 189.980469 59.964844 C 190.363281 60.011719 195.652344 57.707031 198.527344 56.707031 C 200.925781 55.875 204.183594 55.367188 205.507812 55.277344 C 206.617188 55.199219 208.203125 55.539062 209.449219 55.363281 C 210.515625 55.214844 212.257812 54.984375 212.90625 54.867188 C 213.75 54.710938 215.046875 54.378906 216.507812 54.574219 C 217.21875 54.671875 219.421875 54.484375 220.0625 54.5625 C 221.167969 54.699219 222.953125 54.878906 223.953125 54.886719 C 224.832031 54.890625 225.515625 54.6875 226.316406 54.691406 C 226.996094 54.691406 228.226562 55.070312 228.609375 55.089844 C 228.992188 55.109375 229.578125 55.007812 230.730469 54.960938 C 231.167969 54.945312 231.53125 54.304688 231.824219 53.863281 C 232.035156 53.527344 232.351562 52.960938 232.371094 52.578125 C 232.390625 52.195312 232.359375 52.058594 232.214844 51.769531 C 232.101562 51.714844 232.003906 51.410156 232 51.242188 "/>
<path fill-rule="evenodd" fill="rgb(13.725281%, 9.803772%, 8.627319%)" fill-opacity="1" d="M 295.167969 57.425781 C 294.953125 57.039062 294.234375 56.984375 293.789062 56.800781 C 292.007812 56.066406 290.960938 55.703125 289.792969 55.304688 C 289.335938 55.152344 288.699219 54.472656 288.035156 54.167969 C 287.472656 53.921875 286.347656 53.710938 285.734375 53.253906 C 284.652344 52.449219 283.421875 51.363281 281.691406 50.484375 C 280.066406 49.664062 278.707031 46.820312 277.75 46.039062 C 274.835938 43.667969 273.542969 42.15625 272.421875 40.605469 C 272.15625 40.234375 271.628906 38.917969 272.050781 38.105469 C 272.347656 37.542969 272.765625 36.84375 273.113281 36.558594 C 273.617188 36.140625 275.746094 35.46875 276.339844 35.328125 C 276.933594 35.1875 277.648438 35.160156 278.441406 35.054688 C 279.234375 34.949219 279.574219 34.613281 280.289062 34.273438 C 281.191406 33.839844 282.046875 33.859375 283.429688 32.929688 C 284.050781 32.507812 284.449219 31.9375 284.789062 31.925781 C 285.425781 31.902344 285.460938 31.675781 285.441406 31.105469 C 285.390625 29.6875 284.773438 28.019531 283.730469 27.855469 C 282.570312 27.675781 281.699219 27.769531 281.273438 27.066406 C 280.949219 26.523438 278.441406 27.085938 278.441406 27.085938 C 278.058594 27.09375 277.25 27.941406 276.578125 28.386719 C 276.140625 28.671875 275.453125 28.757812 275 28.917969 C 274.546875 29.078125 273.824219 29.449219 273.664062 29.519531 C 273.273438 29.695312 272.921875 29.867188 272.597656 29.796875 C 272.261719 29.726562 272.589844 28.484375 272.625 28.246094 C 273.050781 27.074219 273.539062 26.117188 273.726562 25.574219 C 273.90625 25.050781 273.539062 24.78125 273.4375 24.152344 C 273.324219 23.441406 273.667969 23.011719 272.945312 22.652344 C 272.128906 22.242188 271.28125 21.714844 270.855469 20.929688 C 270.691406 20.628906 268.902344 20.960938 268.21875 20.824219 C 267.785156 20.738281 267.441406 21.289062 266.800781 21.273438 C 266.363281 21.261719 266.1875 20.816406 264.960938 21.136719 C 264.574219 21.238281 264.210938 21.324219 264.234375 21.960938 C 264.246094 22.34375 264.480469 22.46875 264.355469 24.304688 C 264.292969 25.265625 264.328125 26.304688 264.050781 27.027344 C 263.429688 28.644531 263.066406 29.691406 263.167969 31.324219 C 261.601562 32.097656 260.269531 32.863281 258.519531 32.960938 C 257.558594 33.015625 256.203125 32.765625 255.6875 32.902344 C 255.03125 33.078125 254.828125 33.445312 254.519531 33.65625 C 254.085938 33.949219 253.527344 33.894531 253.144531 34.183594 C 252.84375 34.410156 252.53125 34.960938 252.066406 35.296875 C 251.539062 35.675781 251.347656 36.242188 251.449219 37.074219 C 251.671875 38.859375 253.191406 39.867188 253.738281 39.941406 C 254.660156 40.070312 255.023438 40.644531 255.726562 40.871094 C 256.25 41.011719 256.410156 41.007812 257.003906 40.867188 C 257.441406 40.8125 257.964844 40.511719 258.347656 40.5 C 258.726562 40.488281 258.957031 40.519531 259.339844 40.503906 C 259.722656 40.492188 260.597656 40.214844 260.65625 40.457031 C 260.746094 40.851562 260.339844 41.839844 260.121094 42.273438 C 259.707031 43.085938 259.339844 45.113281 257.605469 46.703125 C 255.730469 48.421875 252.921875 51.769531 251.085938 52.949219 C 250.851562 53.101562 250.269531 53.183594 250.105469 53.378906 C 249.796875 53.75 248.878906 54.285156 248.707031 54.425781 C 247.984375 55.007812 247.558594 55.324219 246.675781 55.613281 C 245.730469 55.929688 245.507812 56.375 245.796875 56.644531 C 246.007812 56.835938 246.894531 56.988281 247.167969 57.113281 C 247.65625 57.335938 247.664062 58.515625 247.984375 58.753906 C 248.394531 59.0625 248.613281 59.597656 249.046875 59.675781 C 249.332031 59.730469 250.289062 59.546875 250.632812 59.382812 C 251.261719 59.082031 252.699219 59.148438 253.519531 58.644531 C 254.140625 58.257812 255.9375 57.398438 256.648438 56.941406 C 257.429688 56.4375 259.402344 55.96875 260.863281 54.363281 C 262.566406 52.488281 263.585938 51.855469 264.984375 50.351562 C 266.242188 49.003906 267.613281 45.894531 267.828125 46.027344 C 268.433594 46.40625 270.097656 48.300781 271.9375 49.628906 C 272.4375 49.996094 273.660156 51.472656 273.839844 51.679688 C 274.777344 52.792969 275.628906 54.359375 276.804688 55.441406 C 279.601562 58.011719 278.820312 58.476562 279.394531 60.089844 C 279.613281 60.695312 280.496094 61.117188 281.113281 61.269531 C 282.015625 61.503906 282.972656 61 284.113281 61.683594 C 284.660156 62.003906 285.800781 62.023438 286.042969 62.050781 C 286.917969 62.167969 287.710938 61.957031 288.230469 62.011719 C 288.75 62.078125 290.152344 62.175781 290.347656 62.140625 C 290.628906 62.089844 291.027344 62.199219 291.296875 61.949219 C 291.546875 61.722656 291.84375 61.203125 292.226562 61.160156 C 293.21875 61.046875 293.882812 60.742188 294.539062 59.960938 C 294.882812 59.550781 294.699219 58.878906 294.726562 58.480469 C 294.746094 58.148438 295.351562 57.761719 295.167969 57.425781 "/>
</svg>
